<?xml version="1.0" encoding="utf-8"?>
<!-- Svg Vector Icons : http://www.onlinewebfonts.com/icon -->
<!DOCTYPE svg PUBLIC "-//W3C//DTD SVG 1.1//EN" "http://www.w3.org/Graphics/SVG/1.1/DTD/svg11.dtd">
<svg version="1.1" xmlns="http://www.w3.org/2000/svg" xmlns:xlink="http://www.w3.org/1999/xlink" x="0px" y="0px" viewBox="0 0 256 256" enable-background="new 0 0 256 256" xml:space="preserve">
<metadata> Svg Vector Icons : http://www.onlinewebfonts.com/icon </metadata>
<g><g><path fill="#000000" d="M128,43.4c-46.7,0-84.6,37.9-84.6,84.6c0,46.7,37.9,84.6,84.6,84.6c46.7,0,84.6-37.9,84.6-84.6C212.6,81.3,174.7,43.4,128,43.4z M145.1,177c-1,0-1.9,0-2.9,0v21.8h-13.4V177c-3,0-6,0-8.9,0v21.8h-13.4V177c-14.6,0-25.8,0-25.8,0l0.5-14c0,0,7.6,0,10.2,0c2.7,0,5.1-1.6,5.1-6.5s0-55.7,0-59.2c0-3.6-2.2-4.9-6.7-4.9c-4.5,0-10,0-10,0V78.6c0,0,12.8,0,26.7,0V57.2H120v21.4c3.2,0,6.2,0,8.9,0V57.2h13.4v21.6c13.6,1.2,30.6,6.6,32.5,20.9c2.2,16.5-11.1,23.1-11.1,23.1s18,4.2,18,22.5C181.7,163.6,172.5,177,145.1,177z"/><path fill="#000000" d="M137.1,133.1c-4,0-6.7,0-6.7,0H120v28.5c1.4,0,5.2,0,14.7,0c14.3,0,21.1-5.8,21.1-16.5C155.8,134.5,141.1,133.1,137.1,133.1z"/><path fill="#000000" d="M149.4,105.3c0-10.9-13.1-12-19.8-12c-4.8,0-8.1,0-9.6,0v26.2h17.7C142.3,118.8,149.4,115.1,149.4,105.3z"/><path fill="#000000" d="M128,10C62.8,10,10,62.8,10,128c0,65.2,52.8,118,118,118c65.2,0,118-52.8,118-118C246,62.8,193.2,10,128,10z M128,236.2c-59.8,0-108.2-48.5-108.2-108.2C19.8,68.2,68.2,19.8,128,19.8c59.8,0,108.2,48.5,108.2,108.2C236.2,187.8,187.8,236.2,128,236.2z"/></g></g>
</svg>