<svg width="150" height="150" viewBox="0 0 74 104" fill="none" xmlns="http://www.w3.org/2000/svg">
<path d="M17.9879 92V102C17.9879 103.104 18.8841 104 19.9883 104H27.9901C28.5206 104 29.0294 103.789 29.4046 103.414C29.7797 103.039 29.9905 102.53 29.9905 102V92H33.9914V102C33.9914 103.104 34.8875 104 35.9918 104H43.9935C44.5241 104 45.0329 103.789 45.408 103.414C45.7832 103.039 45.9939 102.53 45.9939 102V92H46.6661C62.6055 92 74 83.736 74 69.44C74 57.424 65.9423 50.856 56.5082 49.92V49.216C64.2699 47.28 69.9751 41.424 69.9751 31.696C69.9751 19.44 60.7731 12 46.7301 12H45.9939V2C45.9939 1.46957 45.7832 0.96086 45.408 0.585787C45.0329 0.210714 44.5241 0 43.9935 0H35.9918C35.4612 0 34.9524 0.210714 34.5773 0.585787C34.2021 0.96086 33.9914 1.46957 33.9914 2V12H29.4064V2C29.4064 1.46957 29.1956 0.96086 28.8204 0.585787C28.4453 0.210714 27.9365 0 27.4059 0H19.9883C19.4578 0 18.949 0.210714 18.5738 0.585787C18.1986 0.96086 17.9879 1.46957 17.9879 2V12L2.00043 12.088C1.46988 12.088 0.961065 12.2987 0.585912 12.6738C0.210758 13.0489 0 13.5576 0 14.088V22C0 23.096 0.880189 24 1.98443 24L8.02573 23.96C9.61043 23.9706 11.1266 24.6074 12.2435 25.7314C13.3603 26.8555 13.9871 28.3756 13.987 29.96V74C13.987 75.5913 13.3547 77.1174 12.2293 78.2426C11.1038 79.3679 9.57737 80 7.98573 80L2.00043 80.088C1.46988 80.088 0.961065 80.2987 0.585912 80.6738C0.210758 81.0489 0 81.5576 0 82.088V90.088C0 91.192 0.896194 92.088 2.00043 92.088L17.9879 92ZM29.4064 23.896H43.1613C50.4109 23.896 54.6678 27.88 54.6678 34.392C54.6678 41.36 50.0668 45.288 39.6486 45.288H29.4064V23.896ZM29.4064 56.304H44.1295C53.2275 56.304 58.1806 60.944 58.1806 68.496C58.1806 76.12 53.1715 80.096 40.9128 80.096H29.4064V56.304Z" fill="#FF7A00"/>
</svg>
