<svg width="150" height="150" viewBox="0 0 113 113" fill="none" xmlns="http://www.w3.org/2000/svg">
<path d="M2.41648e-07 35.0135C-0.000952486 43.1423 2.8153 51.0197 7.9685 57.3024C13.1217 63.5851 20.2927 67.8839 28.2586 69.4658C28.7174 64.4342 30.0074 59.5139 32.076 54.9052C25.9288 52.8261 21.9781 48.1061 21.0518 41.4053H17.5432V38.4131H20.8132V35.3647C20.8086 35.0369 20.8179 34.7208 20.8413 34.4165H17.5432V31.4173H21.129C22.7079 22.6514 29.5638 17.4537 39.8652 17.4537C42.0826 17.4537 44.0054 17.6715 45.6123 18.0508V23.1993C43.735 22.7839 41.8155 22.5906 39.8932 22.6233C33.4444 22.6233 29.1007 25.8965 27.7253 31.4173H41.1774V34.4165H27.2832C27.2645 34.7443 27.2575 35.0884 27.2621 35.449V38.4131H41.1774V41.4123H27.5779C28.4059 45.6407 30.862 48.6469 34.6303 50.0447C38.3251 43.9195 43.4066 38.7494 49.4646 34.9513C55.5227 31.1532 62.3878 28.8335 69.5061 28.1792C67.7851 19.6488 62.9624 12.0613 55.9721 6.88637C48.9818 1.71148 40.3215 -0.682418 31.6687 0.168375C23.0159 1.01917 14.9865 5.0541 9.13588 11.4916C3.28523 17.9291 0.0297323 26.3109 2.41648e-07 35.0135ZM112.276 73.645C112.276 83.8907 108.21 93.7168 100.972 100.962C93.7343 108.206 83.9175 112.276 73.6814 112.276C63.4454 112.276 53.6286 108.206 46.3906 100.962C39.1526 93.7168 35.0864 83.8907 35.0864 73.645C35.0864 63.3993 39.1526 53.5732 46.3906 46.3284C53.6286 39.0836 63.4454 35.0135 73.6814 35.0135C83.9175 35.0135 93.7343 39.0836 100.972 46.3284C108.21 53.5732 112.276 63.3993 112.276 73.645ZM57.8925 82.9306C58.3767 88.7955 63.1274 93.3611 71.6745 93.9019V98.2287H75.4638V93.8738C84.2986 93.2698 89.4703 88.6761 89.4703 82.0034C89.4703 75.9277 85.5196 72.8021 78.4532 71.1866L75.4638 70.4842V58.7122C79.2531 59.1336 81.6671 61.1495 82.2425 63.945H88.8949C88.4037 58.2978 83.4284 53.8797 75.4638 53.3951V49.0613H71.6745V53.4794C64.1239 54.2028 58.9872 58.6209 58.9872 64.8721C58.9872 70.3999 62.8046 73.9189 69.1623 75.3588L71.6745 75.9558V88.4584C67.7869 87.8965 65.2186 85.8174 64.6362 82.9306H57.8925ZM71.6464 69.6203C67.9132 68.7774 65.8923 67.0636 65.8923 64.4788C65.8923 61.599 68.0746 59.4286 71.6745 58.7964V69.6133H71.6394L71.6464 69.6203ZM76.0112 76.9532C80.5373 77.9717 82.6285 79.6223 82.6285 82.5443C82.6285 85.8736 80.0321 88.1634 75.4708 88.5848V76.8268L76.0112 76.9532Z" fill="#FF7A00"/>
</svg>
