<svg width="150" height="150" viewBox="0 0 107 107" fill="none" xmlns="http://www.w3.org/2000/svg">
<path d="M37.0991 63.6844C37.6044 70.0265 42.6169 74.966 51.6049 75.551V80.2311H55.5937V75.5178C64.9008 74.8663 70.3389 69.8936 70.3389 62.6739C70.3389 56.1124 66.1772 52.7286 58.7382 50.9735L55.5937 50.229V37.4848C59.5825 37.9369 62.122 40.1174 62.7336 43.1356H69.7273C69.222 37.0261 63.9834 32.2463 55.5937 31.7277V27.0476H51.6049V31.8274C43.6606 32.6052 38.2426 37.3851 38.2426 44.1461C38.2426 50.1292 42.2712 53.9319 48.9657 55.4941L51.6049 56.1456V69.6676C47.5165 69.0493 44.8107 66.8089 44.1991 63.6844H37.0991ZM51.5717 49.2849C47.6494 48.3742 45.5221 46.5194 45.5221 43.7273C45.5221 40.6027 47.8156 38.2627 51.6049 37.5779V49.2783L51.5717 49.2849ZM56.1721 57.216C60.9387 58.3195 63.1391 60.1078 63.1391 63.2656C63.1391 66.8688 60.4002 69.3418 55.5937 69.7939V57.083L56.1721 57.216Z" fill="#FF7A00"/>
<path d="M53.719 100.175C41.377 100.175 29.5404 95.2722 20.8133 86.5451C12.0862 77.818 7.18335 65.9815 7.18335 53.6394C7.18335 41.2974 12.0862 29.4609 20.8133 20.7338C29.5404 12.0067 41.377 7.1038 53.719 7.1038C66.061 7.1038 77.8975 12.0067 86.6246 20.7338C95.3518 29.4609 100.255 41.2974 100.255 53.6394C100.255 65.9815 95.3518 77.818 86.6246 86.5451C77.8975 95.2722 66.061 100.175 53.719 100.175ZM53.719 106.823C67.8242 106.823 81.3516 101.22 91.3255 91.2459C101.299 81.2721 106.903 67.7446 106.903 53.6394C106.903 39.5343 101.299 26.0068 91.3255 16.033C81.3516 6.05911 67.8242 0.455856 53.719 0.455856C39.6138 0.455856 26.0864 6.05911 16.1125 16.033C6.13866 26.0068 0.5354 39.5343 0.5354 53.6394C0.5354 67.7446 6.13866 81.2721 16.1125 91.2459C26.0864 101.22 39.6138 106.823 53.719 106.823Z" fill="#FF7A00"/>
<path d="M53.719 90.2031C44.0217 90.2031 34.7216 86.3509 27.8645 79.4939C21.0075 72.6369 17.1553 63.3367 17.1553 53.6394C17.1553 43.9421 21.0075 34.642 27.8645 27.785C34.7216 20.928 44.0217 17.0757 53.719 17.0757C63.4163 17.0757 72.7164 20.928 79.5734 27.785C86.4305 34.642 90.2827 43.9421 90.2827 53.6394C90.2827 63.3367 86.4305 72.6369 79.5734 79.4939C72.7164 86.3509 63.4163 90.2031 53.719 90.2031ZM53.719 93.5271C58.9571 93.5271 64.1439 92.4954 68.9833 90.4908C73.8227 88.4863 78.2199 85.5482 81.9238 81.8443C85.6278 78.1404 88.5659 73.7432 90.5704 68.9038C92.575 64.0644 93.6067 58.8776 93.6067 53.6394C93.6067 48.4013 92.575 43.2145 90.5704 38.3751C88.5659 33.5357 85.6278 29.1385 81.9238 25.4346C78.2199 21.7307 73.8227 18.7926 68.9833 16.788C64.1439 14.7835 58.9571 13.7517 53.719 13.7517C43.1401 13.7517 32.9945 17.9542 25.5141 25.4346C18.0337 32.915 13.8313 43.0606 13.8313 53.6394C13.8313 64.2183 18.0337 74.3639 25.5141 81.8443C32.9945 89.3247 43.1401 93.5271 53.719 93.5271Z" fill="#FF7A00"/>
</svg>
